<?xml version="1.0" standalone="no"?>
<!DOCTYPE svg PUBLIC "-//W3C//DTD SVG 20010904//EN"
 "http://www.w3.org/TR/2001/REC-SVG-20010904/DTD/svg10.dtd">
<svg version="1.0" xmlns="http://www.w3.org/2000/svg"
 width="880.000000pt" height="876.000000pt" viewBox="0 0 880.000000 876.000000"
 preserveAspectRatio="xMidYMid meet">
<rect id="readme-backdrop" x="0" y="0" width="880" height="876" fill="#ffffff"/>

<g transform="translate(0.000000,876.000000) scale(0.100000,-0.100000)"
fill="#000000" stroke="none">
<path d="M0 4380 l0 -4380 4400 0 4400 0 0 4380 0 4380 -4400 0 -4400 0 0
-4380z m2980 738 l0 -113 -538 1 c-295 1 -606 2 -690 3 l-153 1 3 27 c3 23 24
40 138 110 l135 82 553 1 552 0 0 -112z m1270 -123 l0 -85 -160 0 -160 0 0
-435 0 -435 -100 0 -100 0 -2 433 -3 432 -162 3 -163 2 0 85 0 85 425 0 425 0
0 -85z m-2029 -962 l-3 -72 -147 6 c-80 3 -148 7 -150 9 -6 5 -2 816 4 823 4
3 70 31 148 62 l142 56 5 -406 c3 -223 3 -438 1 -478z m482 847 l47 0 0 -454
0 -455 -42 -6 c-24 -3 -88 -2 -143 2 l-100 8 -2 452 -2 452 47 4 c26 3 70 3
97 1 28 -2 71 -4 98 -4z m1975 -70 c152 -53 247 -186 259 -362 l6 -78 -296 0
c-163 0 -298 -3 -300 -8 -9 -13 20 -83 45 -109 65 -70 180 -87 263 -39 24 15
49 35 55 46 9 18 21 20 104 20 51 0 95 -3 99 -6 11 -11 -33 -85 -79 -134 -168
-180 -487 -152 -620 55 -49 77 -67 152 -62 254 8 174 103 305 261 362 72 25
190 25 265 -1z m899 -14 c57 -29 97 -71 127 -136 20 -42 21 -66 24 -332 l3
-288 -95 0 -95 0 -3 253 c-3 245 -4 253 -27 294 -14 24 -38 49 -57 58 -75 36
-178 3 -217 -69 -21 -39 -22 -55 -25 -288 l-3 -248 -95 0 -94 0 0 384 0 384
66 4 c37 2 80 2 95 0 27 -4 29 -7 29 -50 l0 -46 38 36 c66 63 111 79 208 74
51 -3 86 -12 121 -30z m727 19 c151 -39 254 -154 288 -320 14 -73 -1 -184 -37
-258 -99 -210 -382 -283 -583 -149 -63 41 -113 104 -144 182 -32 79 -31 231 1
312 26 66 103 157 165 193 88 52 206 67 310 40z m593 -86 c45 53 97 80 173 88
l60 6 0 -97 0 -96 -52 0 c-100 -1 -157 -34 -192 -110 -18 -40 -21 -69 -24
-263 l-4 -218 -92 3 -91 3 -3 382 -3 382 93 3 93 3 3 -64 3 -63 36 41z"/>
<path d="M4455 4653 c-16 -8 -38 -23 -49 -32 -19 -17 -56 -83 -56 -101 0 -6
67 -10 195 -10 129 0 195 4 195 10 0 15 -29 72 -49 94 -47 53 -171 74 -236 39z"/>
<path d="M6141 4649 c-50 -15 -86 -46 -114 -98 -93 -171 14 -373 189 -359 74
6 125 42 159 113 60 121 20 275 -85 330 -36 19 -109 26 -149 14z"/>
</g>
</svg>
